<?xml version="1.0" encoding="UTF-8" standalone="no"?>
<!DOCTYPE svg PUBLIC "-//W3C//DTD SVG 1.1//EN" "http://www.w3.org/Graphics/SVG/1.1/DTD/svg11.dtd">
<svg version="1.1" xmlns="http://www.w3.org/2000/svg" xmlns:xlink="http://www.w3.org/1999/xlink" preserveAspectRatio="xMidYMid meet" viewBox="0 0 640 640" width="640" height="640"><defs><path d="M530.29 279.33C521.63 267.34 519.16 251.76 523.69 237.68C533.11 208.36 534.52 177.66 527.76 148.9C518 107.37 494.23 69.65 460.82 42.7C426.2 14.77 384.3 0 339.67 0C333.83 0 287.15 0 281.32 0C162.38 0 65.62 96.76 65.62 215.7C65.62 215.77 65.62 216.37 65.62 216.44C65.62 256.54 77.86 295.66 101.01 329.59C120.06 357.52 142.77 406 142.77 478.35C142.77 483.44 145.03 488.27 148.94 491.53C166.27 505.98 304.91 621.57 322.24 636.02C325.38 638.64 329.29 640 333.23 640C335.7 640 338.19 639.47 340.51 638.38C346.54 635.56 350.39 629.5 350.39 622.84C350.39 610.53 355.1 594.59 364.02 576.74C376.03 552.67 403.13 539.31 429.91 544.26C431.77 544.6 446.68 547.36 448.55 547.7C448.65 547.72 448.75 547.73 448.86 547.75C468.58 551.31 488.71 546.01 504.12 533.18C519.62 520.29 528.5 501.33 528.5 481.18C528.5 479.49 528.5 465.99 528.5 464.3C528.5 462.37 528.17 460.45 527.54 458.63C527.11 457.41 524.97 451.29 521.12 440.28C526.34 430.41 529.25 424.93 529.83 423.83C531.14 421.36 531.82 418.6 531.82 415.8C531.82 413.59 531.82 402.57 531.82 382.73C538.14 382.73 541.64 382.73 542.35 382.73C554.42 382.73 565.34 376.05 570.84 365.3C576.34 354.55 575.37 341.79 568.3 331.99C560.7 321.46 534.09 284.6 530.29 279.33ZM497.5 365.57C497.5 368.63 497.5 383.95 497.5 411.53C491.36 423.12 487.96 429.55 487.27 430.84C485.04 435.06 484.66 440.03 486.24 444.54C486.77 446.05 489.41 453.61 494.18 467.21C494.18 475.59 494.18 480.24 494.18 481.17C494.18 491.1 489.8 500.44 482.17 506.79C474.84 512.89 465.36 515.49 455.97 514.1C442.99 509.17 339.08 469.71 326.1 464.78C317.23 461.41 307.32 465.87 303.96 474.73C300.59 483.59 305.05 493.5 313.91 496.87C319.96 499.16 368.34 517.54 374.39 519.83C357.02 528.88 342.41 543.17 333.31 561.4C333.31 561.4 333.31 561.4 333.31 561.4C328.21 571.6 324.24 581.36 321.4 590.62C306.96 578.58 191.45 482.27 177.01 470.24C175.35 393.55 150.41 341.09 129.37 310.25C110.12 282.04 99.95 249.6 99.95 216.44C99.95 216.37 99.95 215.77 99.95 215.69C99.95 115.69 181.31 34.33 281.32 34.33C287.16 34.33 333.84 34.33 339.67 34.33C413.8 34.33 477.41 84.67 494.34 156.75C499.68 179.44 498.52 203.79 491.01 227.17C483.16 251.61 487.43 278.61 502.45 299.42C504.81 302.69 516.6 319.01 537.81 348.41L514.66 348.41C503.22 353.53 497.5 359.25 497.5 365.57Z" id="glw1VyjHF"></path><path d="M236.82 225C236.82 262.59 267.41 293.18 305 293.18C342.6 293.18 373.18 262.59 373.18 225C373.18 187.4 342.6 156.81 305 156.81C267.41 156.81 236.82 187.4 236.82 225ZM264.09 225C264.09 202.44 282.45 184.09 305 184.09C327.56 184.09 345.91 202.44 345.91 225C345.91 247.55 327.56 265.91 305 265.91C282.45 265.91 264.09 247.55 264.09 225Z" id="c1ufNSLYTR"></path><path d="M437.3 145.17L384.83 92.7L353.26 108.49L342.11 75L267.9 75L256.74 108.49L225.18 92.7L172.7 145.17L188.49 176.74L155 187.89L155 262.09L188.49 273.24L172.7 304.81L225.18 357.28L256.74 341.49L267.9 375L342.09 375L353.25 341.51L384.82 357.3L437.29 304.82L421.5 273.26L455 262.1L455 187.91L421.51 176.75L437.3 145.17ZM427.73 207.56L427.73 242.45L396.42 252.88C395.05 256.51 394.28 258.52 394.13 258.92C393.46 260.68 392.77 262.39 392.03 264.08C391.85 264.47 390.97 266.44 389.38 269.98L404.13 299.46L379.46 324.13L349.98 309.39C346.43 310.98 344.46 311.86 344.07 312.04C342.38 312.79 340.68 313.47 338.92 314.14C338.51 314.29 336.5 315.05 332.88 316.43L322.44 347.72L287.55 347.72L277.12 316.41C273.49 315.04 271.48 314.28 271.08 314.12C269.32 313.46 267.61 312.76 265.92 312.02C265.53 311.85 263.56 310.97 260.02 309.38L230.55 324.12L205.88 299.45L220.62 269.97C219.03 266.43 218.15 264.46 217.98 264.06C217.23 262.37 216.54 260.67 215.88 258.91C215.72 258.51 214.96 256.49 213.58 252.87L182.28 242.44L182.28 207.54L213.58 197.11C214.96 193.49 215.72 191.47 215.88 191.07C216.54 189.31 217.24 187.61 217.98 185.91C218.15 185.52 219.03 183.55 220.62 180.01L205.88 150.54L230.55 125.87L260.03 140.61C263.57 139.03 265.54 138.15 265.93 137.97C267.63 137.22 269.33 136.54 271.09 135.87C271.49 135.72 273.51 134.95 277.13 133.58L287.56 102.27L322.46 102.27L332.89 133.58C336.51 134.95 338.53 135.72 338.93 135.87C340.69 136.54 342.39 137.23 344.08 137.97C344.48 138.15 346.45 139.03 349.99 140.61L379.47 125.87L404.14 150.54L389.4 180.02C390.99 183.57 391.87 185.53 392.04 185.93C392.79 187.62 393.48 189.32 394.14 191.08C394.3 191.49 395.06 193.5 396.43 197.12L427.73 207.56Z" id="h2OkkLp22T"></path></defs><g><g><g><use xlink:href="#glw1VyjHF" opacity="1" fill="#000000" fill-opacity="1"></use><g><use xlink:href="#glw1VyjHF" opacity="1" fill-opacity="0" stroke="#000000" stroke-width="1" stroke-opacity="0"></use></g></g><g><use xlink:href="#c1ufNSLYTR" opacity="1" fill="#000000" fill-opacity="1"></use><g><use xlink:href="#c1ufNSLYTR" opacity="1" fill-opacity="0" stroke="#000000" stroke-width="1" stroke-opacity="0"></use></g></g><g><use xlink:href="#h2OkkLp22T" opacity="1" fill="#000000" fill-opacity="1"></use><g><use xlink:href="#h2OkkLp22T" opacity="1" fill-opacity="0" stroke="#000000" stroke-width="1" stroke-opacity="0"></use></g></g></g></g></svg>