<?xml version="1.0" encoding="UTF-8" standalone="no"?>
<!DOCTYPE svg PUBLIC "-//W3C//DTD SVG 1.1//EN" "http://www.w3.org/Graphics/SVG/1.1/DTD/svg11.dtd">
<svg version="1.1" xmlns="http://www.w3.org/2000/svg" xmlns:xlink="http://www.w3.org/1999/xlink" preserveAspectRatio="xMidYMid meet" viewBox="0 0 640 640" width="640" height="640"><defs><path d="M344.22 40.11L347.54 40.25L350.84 40.44L354.14 40.69L357.43 40.99L360.7 41.35L363.96 41.76L367.2 42.23L370.43 42.75L373.65 43.32L376.85 43.95L380.04 44.63L383.21 45.36L386.36 46.15L389.5 46.99L392.62 47.88L395.72 48.83L398.81 49.83L401.87 50.88L404.92 51.98L407.95 53.14L410.96 54.35L413.95 55.61L416.91 56.92L419.86 58.28L422.79 59.7L425.69 61.16L428.57 62.68L431.43 64.25L434.27 65.87L437.08 67.54L439.87 69.26L442.64 71.03L445.38 72.85L448.1 74.72L450.78 76.64L453.45 78.61L456.09 80.63L458.7 82.7L461.18 84.75L463.63 86.83L466.05 88.95L468.42 91.1L470.76 93.3L473.06 95.53L475.33 97.8L477.55 100.11L479.73 102.45L481.88 104.83L483.98 107.24L486.04 109.68L488.06 112.15L490.04 114.66L491.98 117.2L493.88 119.77L495.73 122.36L497.54 124.99L499.31 127.65L501.03 130.33L502.71 133.05L504.34 135.78L505.93 138.55L507.48 141.34L508.97 144.15L510.42 146.99L511.83 149.85L513.18 152.74L514.49 155.65L515.75 158.58L516.97 161.53L518.13 164.49L519.24 167.48L520.31 170.49L521.32 173.52L522.29 176.56L523.2 179.62L524.06 182.7L524.87 185.79L525.63 188.9L526.12 191.06L526.58 193.23L527.01 195.4L527.41 197.58L527.78 199.77L528.12 201.96L528.43 204.16L528.71 206.36L528.95 208.57L529.17 210.78L529.36 213L529.51 215.22L529.64 217.44L529.73 219.67L529.8 221.9L529.83 224.13L529.83 226.37L529.81 228.6L529.75 230.84L529.66 233.08L529.54 235.32L529.4 237.56L529.22 239.81L529.01 242.05L528.77 244.29L528.5 246.53L528.2 248.77L527.87 251.01L527.51 253.25L527.12 255.49L526.7 257.72L526.25 259.95L525.77 262.18L525.26 264.41L524.71 266.63L524.14 268.85L523.54 271.06L522.91 273.27L522.25 275.48L521.56 277.68L521.23 278.74L520.93 279.8L520.66 280.87L520.41 281.95L520.19 283.02L519.99 284.1L519.82 285.19L519.67 286.27L519.55 287.36L519.46 288.45L519.39 289.53L519.35 290.62L519.33 291.71L519.34 292.8L519.37 293.89L519.43 294.97L519.51 296.06L519.62 297.14L519.75 298.22L519.91 299.29L520.09 300.36L520.3 301.43L520.53 302.49L520.79 303.55L521.07 304.6L521.37 305.64L521.7 306.68L522.06 307.71L522.43 308.73L522.84 309.75L523.26 310.75L523.71 311.75L524.18 312.74L524.68 313.71L525.2 314.68L525.75 315.63L526.31 316.58L526.91 317.51L527.52 318.43L528.16 319.33L566.17 372L566.69 372.74L567.18 373.49L567.66 374.25L568.11 375.02L568.53 375.8L568.94 376.59L569.32 377.38L569.68 378.19L570.01 379L570.32 379.82L570.61 380.65L570.88 381.48L571.12 382.31L571.34 383.16L571.53 384L571.7 384.85L571.85 385.71L571.98 386.57L572.08 387.43L572.15 388.29L572.21 389.16L572.24 390.02L572.25 390.89L572.23 391.76L572.19 392.62L572.13 393.49L572.04 394.35L571.93 395.22L571.79 396.08L571.63 396.94L571.45 397.8L571.24 398.65L571.01 399.5L570.75 400.35L570.47 401.19L570.17 402.02L569.84 402.85L569.49 403.68L569.11 404.49L568.71 405.3L568.29 406.1L567.85 406.89L567.39 407.65L566.9 408.41L566.4 409.14L565.89 409.86L565.35 410.56L564.8 411.25L564.23 411.92L563.64 412.57L563.04 413.2L562.42 413.81L561.78 414.41L561.13 414.99L560.46 415.55L559.79 416.09L559.09 416.61L558.39 417.11L557.66 417.59L556.93 418.05L556.19 418.5L555.43 418.92L554.66 419.32L553.88 419.7L553.09 420.06L552.29 420.39L551.48 420.71L550.66 421L549.83 421.28L548.99 421.53L548.15 421.75L547.29 421.96L546.43 422.14L545.56 422.29L544.68 422.43L543.8 422.54L542.91 422.63L542.02 422.69L541.12 422.72L540.22 422.74L529.69 422.74L529.69 455.8L529.69 456.01L529.69 456.22L529.68 456.43L529.67 456.64L529.66 456.85L529.65 457.06L529.63 457.27L529.61 457.48L529.59 457.68L529.57 457.89L529.54 458.1L529.51 458.3L529.48 458.51L529.45 458.72L529.41 458.92L529.37 459.13L529.33 459.33L529.28 459.53L529.24 459.74L529.19 459.94L529.14 460.14L529.08 460.34L529.03 460.54L528.97 460.74L528.91 460.94L528.84 461.14L528.78 461.34L528.71 461.54L528.64 461.73L528.56 461.93L528.49 462.12L528.41 462.32L528.33 462.51L528.25 462.7L528.16 462.89L528.07 463.08L527.98 463.27L527.89 463.46L527.8 463.65L527.7 463.84L519.65 479.03L519.62 479.09L519.59 479.15L519.56 479.21L519.53 479.28L519.51 479.34L519.48 479.4L519.46 479.46L519.44 479.53L519.42 479.59L519.4 479.65L519.38 479.72L519.37 479.78L519.35 479.85L519.34 479.91L519.32 479.98L519.31 480.04L519.3 480.11L519.3 480.17L519.29 480.24L519.28 480.31L519.28 480.37L519.28 480.44L519.27 480.5L519.27 480.57L519.28 480.64L519.28 480.7L519.28 480.77L519.29 480.84L519.29 480.9L519.3 480.97L519.31 481.03L519.32 481.1L519.33 481.16L519.35 481.23L519.36 481.3L519.38 481.36L519.4 481.43L519.41 481.49L519.43 481.55L519.46 481.62L525.41 498.63L525.46 498.77L525.5 498.91L525.55 499.04L525.59 499.18L525.63 499.32L525.68 499.46L525.72 499.6L525.75 499.74L525.79 499.88L525.83 500.02L525.86 500.16L525.9 500.3L525.93 500.44L525.96 500.58L525.99 500.72L526.02 500.86L526.05 501L526.08 501.14L526.11 501.28L526.13 501.43L526.15 501.57L526.18 501.71L526.2 501.85L526.22 502L526.24 502.14L526.25 502.28L526.27 502.43L526.29 502.57L526.3 502.71L526.31 502.86L526.32 503L526.33 503.15L526.34 503.29L526.35 503.43L526.36 503.58L526.36 503.72L526.37 503.87L526.37 504.01L526.37 504.16L526.37 504.3L526.37 521.18L526.36 522.69L526.31 524.19L526.22 525.69L526.11 527.19L525.96 528.67L525.78 530.15L525.57 531.62L525.32 533.09L525.05 534.55L524.74 535.99L524.4 537.43L524.04 538.86L523.64 540.28L523.21 541.69L522.74 543.09L522.25 544.48L521.73 545.85L521.18 547.22L520.6 548.57L519.99 549.9L519.36 551.23L518.69 552.54L517.99 553.83L517.27 555.11L516.52 556.38L515.74 557.63L514.93 558.86L514.09 560.07L513.23 561.27L512.34 562.45L511.42 563.62L510.48 564.76L509.51 565.88L508.51 566.99L507.49 568.07L506.44 569.14L505.37 570.18L504.27 571.2L503.14 572.21L501.99 573.18L500.83 574.13L499.65 575.05L498.45 575.94L497.23 576.81L496 577.64L494.76 578.44L493.5 579.22L492.22 579.97L490.93 580.68L489.63 581.37L488.31 582.03L486.99 582.66L485.65 583.26L484.3 583.83L482.93 584.37L481.56 584.88L480.18 585.36L478.79 585.81L477.39 586.23L475.98 586.61L474.56 586.97L473.13 587.3L471.7 587.59L470.26 587.86L468.82 588.09L467.37 588.29L465.91 588.46L464.45 588.6L462.99 588.71L461.52 588.78L460.05 588.83L458.57 588.84L457.09 588.82L455.61 588.76L454.13 588.68L452.65 588.56L451.17 588.41L449.69 588.22L448.21 588.01L446.73 587.76L446.7 587.75L446.67 587.75L446.64 587.74L446.56 587.73L446.54 587.73L446.5 587.72L446.48 587.72L446.47 587.71L446.44 587.71L446.42 587.71L445.72 587.56L443.95 587.17L441.53 586.63L441.43 586.58L441.05 586.41L440.67 586.25L308.3 535.07L308.1 534.94L307.55 534.55L307.02 534.13L306.51 533.69L306.02 533.24L305.54 532.77L305.09 532.28L304.66 531.78L304.24 531.26L303.85 530.73L303.48 530.18L303.13 529.62L302.81 529.05L302.5 528.46L302.22 527.86L301.96 527.26L301.73 526.64L301.52 526.02L301.33 525.39L301.16 524.75L301.02 524.1L300.91 523.45L300.82 522.79L300.76 522.13L300.72 521.46L300.71 520.79L300.72 520.12L300.76 519.44L300.83 518.77L300.93 518.09L301.05 517.42L301.2 516.74L301.38 516.07L301.59 515.4L301.83 514.74L302.09 514.08L302.38 513.44L302.69 512.82L303.03 512.21L303.38 511.63L303.76 511.06L304.16 510.51L304.57 509.98L305.01 509.46L305.46 508.97L305.93 508.5L306.42 508.04L306.92 507.61L307.44 507.2L307.98 506.81L308.52 506.44L309.08 506.09L309.66 505.76L310.24 505.46L310.84 505.17L311.44 504.92L312.06 504.68L312.68 504.47L313.32 504.28L313.96 504.12L314.6 503.98L315.26 503.86L315.91 503.77L316.58 503.71L317.24 503.67L317.91 503.66L318.59 503.67L319.26 503.72L319.94 503.78L320.61 503.88L321.29 504L321.96 504.16L322.63 504.34L323.3 504.54L323.97 504.78L453.85 554.1L454.55 554.2L455.26 554.28L455.96 554.35L456.66 554.4L457.37 554.44L458.07 554.46L458.77 554.47L459.47 554.46L460.17 554.44L460.87 554.4L461.56 554.35L462.26 554.29L462.95 554.21L463.64 554.12L464.33 554.01L465.01 553.89L465.69 553.75L466.37 553.6L467.04 553.44L467.72 553.26L468.38 553.06L469.04 552.86L469.7 552.64L470.36 552.4L471.01 552.15L471.65 551.89L472.29 551.62L472.92 551.33L473.55 551.02L474.18 550.7L474.79 550.37L475.4 550.03L476.01 549.67L476.6 549.3L477.19 548.92L477.78 548.52L478.35 548.11L478.92 547.68L479.48 547.25L480.04 546.8L480.6 546.31L481.16 545.82L481.7 545.32L482.23 544.8L482.75 544.28L483.25 543.75L483.74 543.2L484.22 542.65L484.68 542.08L485.13 541.51L485.57 540.93L486 540.34L486.41 539.74L486.81 539.13L487.19 538.52L487.56 537.89L487.92 537.26L488.26 536.63L488.59 535.98L488.91 535.33L489.21 534.67L489.49 534.01L489.76 533.33L490.02 532.66L490.26 531.97L490.49 531.28L490.7 530.59L490.9 529.89L491.08 529.19L491.25 528.48L491.4 527.76L491.53 527.05L491.65 526.32L491.76 525.6L491.85 524.87L491.92 524.14L491.97 523.4L492.02 522.66L492.04 521.92L492.05 521.18L492.05 507.22L484.11 484.54L484 484.2L483.89 483.86L483.79 483.52L483.7 483.18L483.61 482.83L483.53 482.49L483.46 482.14L483.4 481.79L483.34 481.44L483.29 481.09L483.25 480.74L483.22 480.39L483.19 480.04L483.17 479.69L483.16 479.34L483.15 478.99L483.15 478.64L483.16 478.29L483.18 477.93L483.2 477.58L483.23 477.23L483.27 476.89L483.31 476.54L483.36 476.19L483.42 475.84L483.49 475.5L483.56 475.15L483.64 474.81L483.72 474.47L483.82 474.13L483.92 473.79L484.03 473.46L484.14 473.12L484.27 472.79L484.39 472.46L484.53 472.13L484.67 471.8L484.82 471.48L484.98 471.16L485.15 470.84L495.37 451.54L495.37 405.57L495.38 405.1L495.41 404.63L495.47 404.16L495.54 403.69L495.64 403.23L495.76 402.77L495.9 402.31L496.06 401.85L496.24 401.4L496.44 400.94L496.67 400.49L496.91 400.05L497.18 399.6L497.47 399.16L497.78 398.71L498.12 398.28L498.47 397.84L498.85 397.4L499.24 396.97L499.66 396.54L500.1 396.11L500.56 395.69L501.04 395.26L501.55 394.84L502.07 394.42L502.62 394.01L503.19 393.59L503.78 393.18L504.39 392.77L505.02 392.36L505.68 391.96L506.35 391.55L507.05 391.15L507.77 390.75L508.51 390.36L509.27 389.96L510.06 389.57L510.86 389.18L511.69 388.79L512.53 388.41L535.68 388.41L500.32 339.42L499.22 337.85L498.15 336.26L497.13 334.64L496.14 333L495.2 331.35L494.3 329.67L493.43 327.98L492.61 326.27L491.83 324.54L491.1 322.79L490.4 321.03L489.75 319.26L489.13 317.47L488.56 315.67L488.03 313.86L487.55 312.04L487.1 310.21L486.7 308.37L486.34 306.52L486.03 304.66L485.75 302.8L485.52 300.93L485.33 299.05L485.19 297.17L485.09 295.29L485.03 293.4L485.02 291.51L485.05 289.63L485.12 287.74L485.24 285.85L485.41 283.96L485.61 282.08L485.86 280.19L486.16 278.32L486.5 276.44L486.89 274.58L487.32 272.71L487.79 270.86L488.31 269.01L488.88 267.18L489.43 265.42L489.96 263.66L490.46 261.9L490.94 260.14L491.4 258.37L491.83 256.6L492.24 254.83L492.62 253.05L492.98 251.28L493.32 249.5L493.63 247.72L493.92 245.94L494.19 244.16L494.43 242.38L494.64 240.6L494.83 238.82L495 237.04L495.15 235.26L495.27 233.48L495.36 231.71L495.44 229.93L495.48 228.15L495.51 226.38L495.51 224.61L495.48 222.84L495.44 221.07L495.36 219.31L495.27 217.55L495.14 215.79L495 214.04L494.83 212.29L494.64 210.54L494.42 208.8L494.18 207.07L493.91 205.33L493.62 203.61L493.3 201.88L492.97 200.17L492.6 198.46L492.21 196.75L490.86 191.39L489.33 186.11L487.63 180.91L485.77 175.81L483.75 170.8L481.57 165.88L479.23 161.06L476.74 156.34L474.11 151.72L471.33 147.21L468.41 142.81L465.35 138.52L462.16 134.34L458.83 130.28L455.38 126.34L451.81 122.52L448.11 118.82L444.3 115.26L440.37 111.82L436.33 108.51L432.18 105.34L427.93 102.31L423.58 99.41L419.14 96.66L414.6 94.06L409.96 91.6L405.25 89.3L400.44 87.15L395.56 85.16L390.6 83.32L385.57 81.65L380.47 80.14L375.3 78.8L370.07 77.63L364.78 76.63L359.43 75.81L354.03 75.17L348.58 74.7L343.08 74.42L337.54 74.33L279.19 74.33L271.73 74.48L264.34 74.93L257.03 75.68L249.81 76.71L242.69 78.02L235.66 79.61L228.74 81.47L221.93 83.59L215.23 85.97L208.66 88.61L202.22 91.48L195.91 94.6L189.75 97.96L183.73 101.54L177.86 105.35L172.15 109.37L166.6 113.6L161.23 118.04L156.03 122.68L151.01 127.51L146.17 132.53L141.54 137.73L137.1 143.11L132.86 148.65L128.84 154.36L125.04 160.23L121.45 166.25L118.1 172.42L114.98 178.73L112.1 185.17L109.47 191.74L107.09 198.43L104.96 205.24L103.11 212.16L101.52 219.19L100.2 226.32L99.17 233.54L98.43 240.84L97.98 248.23L97.83 255.7L97.83 256.44L97.85 258.93L97.9 261.41L98 263.89L98.13 266.37L98.3 268.84L98.51 271.31L98.76 273.77L99.04 276.23L99.36 278.68L99.72 281.13L100.11 283.57L100.54 286L101.01 288.43L101.52 290.85L102.06 293.26L102.64 295.67L103.25 298.06L103.91 300.45L104.59 302.83L105.32 305.21L106.08 307.57L106.87 309.92L107.71 312.26L108.57 314.6L109.48 316.92L110.42 319.23L111.39 321.53L112.4 323.82L113.45 326.09L114.53 328.36L115.64 330.61L116.79 332.85L117.98 335.07L119.2 337.28L120.45 339.48L121.74 341.66L123.06 343.83L124.42 345.99L125.81 348.13L127.24 350.25L128.82 352.6L130.42 355.04L132.03 357.55L133.64 360.15L135.26 362.83L136.88 365.6L138.5 368.44L140.12 371.37L141.73 374.38L143.33 377.48L144.92 380.65L146.5 383.92L148.06 387.26L149.6 390.69L151.12 394.21L152.62 397.8L154.1 401.49L155.54 405.26L156.95 409.11L158.33 413.05L159.67 417.08L160.98 421.19L162.24 425.39L163.46 429.68L164.63 434.05L165.75 438.51L166.82 443.06L167.84 447.69L168.8 452.42L169.7 457.23L170.54 462.13L171.31 467.11L172.02 472.19L172.66 477.36L173.22 482.61L173.72 487.96L174.13 493.39L174.46 498.92L174.72 504.53L174.83 508.35L174.81 508.41L174.74 508.81L174.68 509.21L174.64 509.61L174.62 510.02L174.61 510.43L174.61 526.62L172.26 526.08L165.32 524.46L159.11 523.01L153.7 521.72L149.15 520.63L145.51 519.73L142.85 519.04L141.2 518.58L140.64 518.35L140.6 512.97L140.47 507.68L140.27 502.47L139.99 497.36L139.63 492.33L139.2 487.39L138.7 482.54L138.13 477.78L137.49 473.1L136.8 468.51L136.04 464.01L135.22 459.59L134.35 455.26L133.43 451.01L132.45 446.85L131.43 442.78L130.36 438.78L129.25 434.88L128.1 431.05L126.9 427.31L125.68 423.66L124.42 420.08L123.13 416.59L121.81 413.18L120.47 409.86L119.1 406.61L117.71 403.45L116.3 400.37L114.88 397.37L113.44 394.45L111.99 391.61L110.54 388.85L109.08 386.16L107.61 383.56L106.14 381.04L104.68 378.6L103.22 376.23L101.76 373.94L100.31 371.73L98.88 369.6L97.16 367.04L95.49 364.47L93.86 361.88L92.26 359.27L90.71 356.64L89.2 353.99L87.74 351.33L86.31 348.65L84.93 345.95L83.59 343.24L82.29 340.51L81.03 337.77L79.81 335.01L78.64 332.24L77.51 329.46L76.43 326.66L75.38 323.85L74.38 321.02L73.42 318.18L72.51 315.33L71.64 312.47L70.81 309.6L70.03 306.72L69.29 303.83L68.59 300.92L67.94 298.01L67.33 295.09L66.76 292.16L66.25 289.22L65.77 286.27L65.34 283.32L64.95 280.35L64.61 277.39L64.32 274.41L64.07 271.43L63.86 268.44L63.7 265.45L63.59 262.45L63.52 259.45L63.5 256.45L63.5 255.7L63.68 246.82L64.21 238.03L65.1 229.34L66.32 220.76L67.89 212.28L69.78 203.93L71.99 195.7L74.51 187.6L77.34 179.64L80.47 171.82L83.9 164.16L87.61 156.66L91.6 149.32L95.86 142.16L100.38 135.19L105.17 128.39L110.2 121.8L115.48 115.4L121 109.22L126.74 103.25L132.71 97.5L138.9 91.99L145.29 86.71L151.89 81.68L158.68 76.89L165.66 72.37L172.82 68.1L180.15 64.12L187.65 60.4L195.31 56.98L203.13 53.85L211.09 51.02L219.19 48.49L227.42 46.28L235.78 44.39L244.25 42.83L252.84 41.6L261.53 40.72L270.31 40.18L279.19 40L337.54 40L340.88 40.03L344.22 40.11Z" id="a9GVuZoZUg"></path><path d="M435.17 185.17L382.7 132.7L351.13 148.49L339.98 115L265.77 115L254.62 148.49L223.05 132.7L170.57 185.17L186.37 216.74L152.87 227.9L152.87 302.09L186.37 313.25L170.57 344.81L223.05 397.29L254.62 381.5L265.77 415L339.97 415L351.12 381.51L382.69 397.3L435.16 344.83L419.37 313.26L452.87 302.1L452.87 227.91L419.38 216.75L435.17 185.17ZM425.6 247.56L425.6 282.45L394.29 292.89C392.92 296.51 392.15 298.52 392 298.93C391.33 300.69 390.64 302.39 389.9 304.08C389.73 304.48 388.84 306.44 387.26 309.99L402 339.47L377.33 364.14L347.85 349.4C344.3 350.98 342.34 351.86 341.94 352.04C340.25 352.79 338.55 353.47 336.79 354.14C336.39 354.29 334.37 355.06 330.75 356.43L320.32 387.73L285.42 387.73L274.99 356.42C271.36 355.04 269.35 354.28 268.95 354.13C267.19 353.46 265.48 352.76 263.79 352.03C263.4 351.85 261.43 350.97 257.89 349.38L228.42 364.12L203.75 339.45L218.49 309.97C216.91 306.43 216.02 304.46 215.85 304.07C215.1 302.38 214.42 300.67 213.75 298.91C213.59 298.51 212.83 296.5 211.46 292.87L180.15 282.44L180.15 247.55L211.46 237.11C212.83 233.49 213.59 231.48 213.75 231.07C214.42 229.31 215.11 227.61 215.85 225.92C216.02 225.52 216.91 223.56 218.49 220.01L203.75 190.55L228.42 165.88L257.9 180.62C261.44 179.03 263.41 178.15 263.81 177.97C265.5 177.22 267.2 176.54 268.96 175.87C269.36 175.72 271.38 174.96 275 173.58L285.43 142.27L320.33 142.27L330.76 173.58C334.39 174.96 336.4 175.72 336.8 175.87C338.56 176.54 340.27 177.24 341.96 177.97C342.35 178.15 344.32 179.03 347.86 180.62L377.34 165.88L402.01 190.55L387.27 220.03C388.86 223.57 389.74 225.54 389.92 225.93C390.67 227.62 391.35 229.33 392.02 231.09C392.17 231.49 392.93 233.5 394.31 237.13L425.6 247.56Z" id="c17W4DF6E"></path><path d="M234.69 265C234.69 302.6 265.28 333.18 302.87 333.18C340.47 333.18 371.06 302.6 371.06 265C371.06 227.4 340.47 196.82 302.87 196.82C265.28 196.82 234.69 227.4 234.69 265ZM261.97 265C261.97 242.45 280.32 224.09 302.87 224.09C325.43 224.09 343.78 242.45 343.78 265C343.78 287.55 325.43 305.91 302.87 305.91C280.32 305.91 261.97 287.55 261.97 265Z" id="gm3xng8to"></path></defs><g><g><g><use xlink:href="#a9GVuZoZUg" opacity="1" fill="#000000" fill-opacity="1"></use><g><use xlink:href="#a9GVuZoZUg" opacity="1" fill-opacity="0" stroke="#000000" stroke-width="1" stroke-opacity="0"></use></g></g><g><use xlink:href="#c17W4DF6E" opacity="1" fill="#000000" fill-opacity="1"></use><g><use xlink:href="#c17W4DF6E" opacity="1" fill-opacity="0" stroke="#000000" stroke-width="1" stroke-opacity="0"></use></g></g><g><use xlink:href="#gm3xng8to" opacity="1" fill="#000000" fill-opacity="1"></use><g><use xlink:href="#gm3xng8to" opacity="1" fill-opacity="0" stroke="#000000" stroke-width="1" stroke-opacity="0"></use></g></g></g></g></svg>