<?xml version="1.0" encoding="iso-8859-1"?>
<!-- Generator: Adobe Illustrator 19.0.0, SVG Export Plug-In . SVG Version: 6.00 Build 0)  -->
<svg version="1.1" id="Capa_1" xmlns="http://www.w3.org/2000/svg" xmlns:xlink="http://www.w3.org/1999/xlink" x="0px" y="0px"
	 viewBox="0 0 480 480" style="enable-background:new 0 0 480 480;" xml:space="preserve">
<g>
	<g>
		<g>
			<path d="M240,0C107.452,0,0,107.452,0,240s107.452,240,240,240s240-107.452,240-240S372.548,0,240,0z M240,416
				c-97.202,0-176-78.798-176-176S142.798,64,240,64s176,78.798,176,176S337.202,416,240,416z"/>
			<path d="M326.72,153.28c-12.504-12.504-32.776-12.504-45.28,0v0.16L240,194.72l-41.44-41.44
				c-12.504-12.504-32.776-12.504-45.28,0s-12.504,32.776,0,45.28L194.72,240l-41.44,41.44c-12.504,12.504-12.504,32.776,0,45.28
				s32.776,12.504,45.28,0L240,285.28l41.44,41.44c12.504,12.504,32.776,12.504,45.28,0s12.504-32.776,0-45.28L285.28,240
				l41.44-41.44C339.224,186.056,339.224,165.784,326.72,153.28z"/>
		</g>
	</g>
</g>
<g>
</g>
<g>
</g>
<g>
</g>
<g>
</g>
<g>
</g>
<g>
</g>
<g>
</g>
<g>
</g>
<g>
</g>
<g>
</g>
<g>
</g>
<g>
</g>
<g>
</g>
<g>
</g>
<g>
</g>
</svg>
